/* XPM */
static char * bitcoin32_xpm[] = {
"32 32 233 2",
"  	c None",
". 	c #494949",
"+ 	c #212121",
"@ 	c #090909",
"# 	c #0A0A0A",
"$ 	c #080808",
"% 	c #202020",
"& 	c #454545",
"* 	c #333333",
"= 	c #0F0F0F",
"- 	c #000000",
"; 	c #0D0D0D",
"> 	c #313131",
", 	c #3F3F3F",
"' 	c #101010",
") 	c #414141",
"! 	c #3B3B3B",
"~ 	c #020202",
"{ 	c #030303",
"] 	c #242424",
"^ 	c #020100",
"/ 	c #74621C",
"( 	c #C6A936",
"_ 	c #352D08",
": 	c #3A3009",
"< 	c #C1A534",
"[ 	c #7C691E",
"} 	c #272727",
"| 	c #3D3D3D",
"1 	c #010101",
"2 	c #050400",
"3 	c #9A8328",
"4 	c #ECC841",
"5 	c #EFCB42",
"6 	c #9F872A",
"7 	c #998227",
"8 	c #F0CC43",
"9 	c #EBC841",
"0 	c #9E8729",
"a 	c #0B0801",
"b 	c #404040",
"c 	c #434343",
"d 	c #050505",
"e 	c #957F27",
"f 	c #EECB42",
"g 	c #F1CD43",
"h 	c #DFBE3E",
"i 	c #524511",
"j 	c #44390D",
"k 	c #DFBE3D",
"l 	c #EDCA42",
"m 	c #080501",
"n 	c #464646",
"o 	c #171717",
"p 	c #76641C",
"q 	c #B1962F",
"r 	c #010100",
"s 	c #AC922E",
"t 	c #7E6B1F",
"u 	c #111111",
"v 	c #3E3E3E",
"w 	c #2A2305",
"x 	c #DCBC3D",
"y 	c #E5C33F",
"z 	c #685818",
"A 	c #584A13",
"B 	c #E7C540",
"C 	c #D9B93C",
"D 	c #43380C",
"E 	c #424242",
"F 	c #1E1E1E",
"G 	c #A1892A",
"H 	c #BFA233",
"I 	c #1E1903",
"J 	c #0C0901",
"K 	c #BCA032",
"L 	c #040300",
"M 	c #060606",
"N 	c #484848",
"O 	c #272105",
"P 	c #DDBC3D",
"Q 	c #EAC741",
"R 	c #7B681E",
"S 	c #6D5C1A",
"T 	c #DABA3C",
"U 	c #392F09",
"V 	c #2D2D2D",
"W 	c #7D6A1E",
"X 	c #CCAE37",
"Y 	c #322907",
"Z 	c #110D01",
"` 	c #CEAF38",
" .	c #78661D",
"..	c #353535",
"+.	c #1C1C1C",
"@.	c #AD922D",
"#.	c #B99E32",
"$.	c #312907",
"%.	c #40360B",
"&.	c #41360B",
"*.	c #1D1803",
"=.	c #B69C31",
"-.	c #F0CD43",
";.	c #AD932E",
">.	c #0C0C0C",
",.	c #030200",
"'.	c #C7AA36",
").	c #CDAE38",
"!.	c #463B0D",
"~.	c #B39930",
"{.	c #B59B31",
"].	c #2D2506",
"^.	c #CCAE38",
"/.	c #C8AA36",
"(.	c #161202",
"_.	c #130E01",
":.	c #D8B83B",
"<.	c #917B25",
"[.	c #927D25",
"}.	c #937D25",
"|.	c #887422",
"1.	c #D6B63B",
"2.	c #251E04",
"3.	c #100600",
"4.	c #0F0C01",
"5.	c #AE942E",
"6.	c #BDA133",
"7.	c #BA9E32",
"8.	c #5F5015",
"9.	c #B59A30",
"0.	c #BA9E31",
"a.	c #514410",
"b.	c #BC9F33",
"c.	c #AC932E",
"d.	c #1F1903",
"e.	c #110600",
"f.	c #9D8528",
"g.	c #9F8729",
"h.	c #232323",
"i.	c #B6B6B6",
"j.	c #181513",
"k.	c #3C320A",
"l.	c #C9AB37",
"m.	c #EFCC43",
"n.	c #2E2706",
"o.	c #757575",
"p.	c #CFCFCF",
"q.	c #6E6E6E",
"r.	c #110701",
"s.	c #252525",
"t.	c #1C1603",
"u.	c #5B4D14",
"v.	c #1A1502",
"w.	c #0E0E0E",
"x.	c #C0C0C0",
"y.	c #B1B1B1",
"z.	c #222222",
"A.	c #262626",
"B.	c #7B691E",
"C.	c #CFB038",
"D.	c #A78E2C",
"E.	c #A68E2C",
"F.	c #D4B53A",
"G.	c #75631C",
"H.	c #565656",
"I.	c #BDBDBD",
"J.	c #7E7E7E",
"K.	c #2D2505",
"L.	c #D3B43A",
"M.	c #1B1602",
"N.	c #939292",
"O.	c #B5B5B5",
"P.	c #323232",
"Q.	c #1A1A1A",
"R.	c #010000",
"S.	c #8F7A24",
"T.	c #EECA42",
"U.	c #907A25",
"V.	c #656565",
"W.	c #C8C8C8",
"X.	c #7B7B7B",
"Y.	c #040404",
"Z.	c #343434",
"`.	c #40350B",
" +	c #D8B73B",
".+	c #DDBD3D",
"++	c #352C08",
"@+	c #969696",
"#+	c #C5C5C5",
"$+	c #525252",
"%+	c #151515",
"&+	c #060400",
"*+	c #A58D2B",
"=+	c #4C4C4C",
"-+	c #BFBEBE",
";+	c #666564",
">+	c #554812",
",+	c #E1BF3E",
"'+	c #4F4310",
")+	c #919191",
"!+	c #C3C3C2",
"~+	c #5E5E5E",
"{+	c #3A3A3A",
"]+	c #0E0A01",
"^+	c #B1972F",
"/+	c #B79C31",
"(+	c #070500",
"_+	c #AEAEAE",
":+	c #A4A4A4",
"<+	c #161616",
"[+	c #645416",
"}+	c #E8C640",
"|+	c #E9C640",
"1+	c #6B5B19",
"2+	c #787878",
"3+	c #D7D7D7",
"4+	c #777777",
"5+	c #C0A434",
"6+	c #C3A635",
"7+	c #48402A",
"8+	c #BBBBBB",
"9+	c #979797",
"0+	c #2E2E2E",
"a+	c #363636",
"b+	c #272004",
"c+	c #826F20",
"d+	c #C8AB36",
"e+	c #E4C33F",
"f+	c #CAAD37",
"g+	c #836F21",
"h+	c #1B1502",
"i+	c #383838",
"j+	c #0B0B0B",
"                      . + @ # $ @ @ $ % &                       ",
"                  * = - - - - - - - - - - ; >                   ",
"              , ' - - - - - - - - - - - - - - ; )               ",
"            ! ~ - - - - - - - - - - - - - - - - { !             ",
"          ] - ^ / ( _ - - - - - - - - - - : < [ - - }           ",
"        | 1 2 3 4 5 6 - - - - - - - - - - 7 8 9 0 a - b         ",
"      c d - e f g g h i - - - - - - - - j k g g l 0 m - n       ",
"      o - p l g g g 8 q r - - - - - - a s g g g g 9 t - u       ",
"    v - w x g g g g g y z - - - - - - A B g g g g g C D - E     ",
"    F - G 8 g g g g g g H I - - - - J K g g g g g g g G L M     ",
"  N - O P g g g g g g g Q R - - - - S l g g g g g g g T U - n   ",
"  V - W l g g g g g g g g X Y - - Z ` g g g g g g g g g  .- ..  ",
"  +.- @.g g g g g g g g 8 #.$.%.&.*.=.-.g g g g g g g g ;.L >.  ",
"  +.,.'.g g g g g g g g ).!.~.Q 9 {.].^.g g g g g g g g /.(.1   ",
"  - _.:.g g g g g g g 5 <.[.f g g g }.|.g g g g g g g g 1.2.3.  ",
"  - 4.5.6.6.6.6.6.6.6.7.8.9.g g g g 0.a.b.6.6.6.6.6.6.6.c.d.e.  ",
"  - - - - - - - - - - - - f.8 g g g g.- - - - - - - - h.i.v e.  ",
"  j.- - - - - - - - - - - k.l.5 m.^.n.- - - - - - - - o.p.q.r.  ",
"  s.- - - - - - - - - - - L t.u.u.v.L - - - - - - - w.x.y.z.M   ",
"  A.- - - - - - - - - - - B.C.D.E.F.G.- - - - - - - H.I.J.1 V   ",
"  N - - - - - - - - - - K.` g g g g L.M.- - - - - ~ N.O.P.- &   ",
"    Q.- - - - - - - - R.S.T.g g g g 8 U.- - - - - V.W.X.Y.1     ",
"    Z.- - - - - - - - `. +g g g g g g .+++- - - ~ @+#+$+- b     ",
"      %+- - - - - - &+G g g g g g g g 8 *+R.- - =+-+;+- M       ",
"      ! ~ - - - - - >+,+g g g g g g g g y '+- 1 )+!+~+- {+      ",
"        s.- - - - ]+^+g g g g g g g g g g /+(+E _+:+Q.b         ",
"          <+- - - [+}+g g g g g g g g g g |+1+2+3+4+Q.          ",
"            <+- - U 5+5 g g g g g g g g m.6+7+8+9+0+            ",
"              a+- - ,.b+c+d+e+9 9 y f+g+2.,.- ; ,               ",
"                  F - - - r Z h+h+Z R.- - - %                   ",
"                      i+j+- - - - - - M a+                      ",
"                                                                "};
