/* XPM */
static char * bitcoin64_xpm[] = {
"64 64 418 2",
"  	c None",
". 	c #5E5E5E",
"+ 	c #2E2E2E",
"@ 	c #292929",
"# 	c #3D3D3D",
"$ 	c #303030",
"% 	c #353535",
"& 	c #2C2C2C",
"* 	c #3A3A3A",
"= 	c #343434",
"- 	c #363636",
"; 	c #2B2B2B",
"> 	c #7D7D7D",
", 	c #656565",
"' 	c #424242",
") 	c #2F2F2F",
"! 	c #101010",
"~ 	c #010101",
"{ 	c #000000",
"] 	c #030303",
"^ 	c #191919",
"/ 	c #373737",
"( 	c #484848",
"_ 	c #585858",
": 	c #060606",
"< 	c #141414",
"[ 	c #393939",
"} 	c #626262",
"| 	c #454545",
"1 	c #1B1B1B",
"2 	c #272727",
"3 	c #565656",
"4 	c #515151",
"5 	c #1C1C1C",
"6 	c #262626",
"7 	c #595959",
"8 	c #5D5D5D",
"9 	c #1E1E1E",
"0 	c #575757",
"a 	c #111111",
"b 	c #6C6C6C",
"c 	c #474747",
"d 	c #151515",
"e 	c #5F5F5F",
"f 	c #2D2D2D",
"g 	c #504410",
"h 	c #8A7623",
"i 	c #342C08",
"j 	c #897623",
"k 	c #282105",
"l 	c #1B1703",
"m 	c #927C26",
"n 	c #E2C13E",
"o 	c #E6C440",
"p 	c #685918",
"q 	c #A48C2B",
"r 	c #EDCA42",
"s 	c #D0B239",
"t 	c #6A5A19",
"u 	c #010100",
"v 	c #3D340B",
"w 	c #BEA233",
"x 	c #EECB42",
"y 	c #F1CD43",
"z 	c #C6A936",
"A 	c #191502",
"B 	c #5B4D14",
"C 	c #E3C13F",
"D 	c #E7C440",
"E 	c #968027",
"F 	c #414141",
"G 	c #564A13",
"H 	c #D4B53A",
"I 	c #F0CC43",
"J 	c #ECC942",
"K 	c #060500",
"L 	c #BDA233",
"M 	c #B1972F",
"N 	c #292205",
"O 	c #4A4A4A",
"P 	c #5C4F14",
"Q 	c #DDBC3D",
"R 	c #D8B83B",
"S 	c #3E350B",
"T 	c #7B691E",
"U 	c #EBC841",
"V 	c #BCA133",
"W 	c #2C2405",
"X 	c #040404",
"Y 	c #787878",
"Z 	c #555555",
"` 	c #4C4110",
" .	c #DBBB3D",
"..	c #A78F2C",
"+.	c #201B04",
"@.	c #D3B43A",
"#.	c #261F04",
"$.	c #0F0F0F",
"%.	c #3F350B",
"&.	c #D5B63B",
"*.	c #E4C23F",
"=.	c #605215",
"-.	c #9C8629",
";.	c #F0CD43",
">.	c #AB922E",
",.	c #151102",
"'.	c #3B3B3B",
").	c #231D04",
"!.	c #C1A534",
"~.	c #080601",
"{.	c #524611",
"].	c #E2C03F",
"^.	c #EFCB42",
"/.	c #8B7723",
"(.	c #040300",
"_.	c #616161",
":.	c #747474",
"<.	c #050400",
"[.	c #947E26",
"}.	c #826F20",
"|.	c #0C0901",
"1.	c #B79D31",
"2.	c #514511",
"3.	c #D4B53B",
"4.	c #362E08",
"5.	c #75641D",
"6.	c #E9C641",
"7.	c #171302",
"8.	c #BCA032",
"9.	c #A0882A",
"0.	c #272105",
"a.	c #CCAE38",
"b.	c #EFCC43",
"c.	c #847121",
"d.	c #020100",
"e.	c #4C4C4C",
"f.	c #645617",
"g.	c #E0BF3E",
"h.	c #5A4D14",
"i.	c #927D25",
"j.	c #EECA42",
"k.	c #2C2506",
"l.	c #686868",
"m.	c #BFA334",
"n.	c #BA9F32",
"o.	c #141002",
"p.	c #4A3F0F",
"q.	c #DDBD3D",
"r.	c #E9C741",
"s.	c #7A681E",
"t.	c #100D01",
"u.	c #B19730",
"v.	c #C7AA36",
"w.	c #1C1703",
"x.	c #030200",
"y.	c #A0892A",
"z.	c #CFB139",
"A.	c #312A07",
"B.	c #70601B",
"C.	c #E7C540",
"D.	c #EFCC42",
"E.	c #4F4310",
"F.	c #5B5B5B",
"G.	c #0C0C0C",
"H.	c #211B03",
"I.	c #998328",
"J.	c #282205",
"K.	c #C7A936",
"L.	c #A38C2B",
"M.	c #535353",
"N.	c #493D0E",
"O.	c #3C340B",
"P.	c #C4A836",
"Q.	c #C8AB36",
"R.	c #181302",
"S.	c #877322",
"T.	c #8F7A24",
"U.	c #161202",
"V.	c #564912",
"W.	c #695918",
"X.	c #675717",
"Y.	c #453A0D",
"Z.	c #322A07",
"`.	c #B19830",
" +	c #E6C540",
".+	c #382F09",
"++	c #AA912D",
"@+	c #988227",
"#+	c #030300",
"$+	c #020200",
"%+	c #635517",
"&+	c #BDA133",
"*+	c #EDC942",
"=+	c #DAB93C",
"-+	c #A68E2C",
";+	c #3D330B",
">+	c #C3A735",
",+	c #625416",
"'+	c #252525",
")+	c #110D01",
"!+	c #C4A835",
"~+	c #41370C",
"{+	c #615316",
"]+	c #E3C23F",
"^+	c #867322",
"/+	c #202020",
"(+	c #897523",
"_+	c #D1B339",
":+	c #090701",
"<+	c #A28B2B",
"[+	c #010000",
"}+	c #DFBE3E",
"|+	c #E2C03E",
"1+	c #4D410F",
"2+	c #806D1F",
"3+	c #4E4210",
"4+	c #8E7924",
"5+	c #B2982F",
"6+	c #D9B93C",
"7+	c #E5C340",
"8+	c #2A2305",
"9+	c #6B5B19",
"0+	c #73621B",
"a+	c #E0BE3E",
"b+	c #B0972F",
"c+	c #060400",
"d+	c #0B0801",
"e+	c #5C4E14",
"f+	c #615216",
"g+	c #594A13",
"h+	c #080701",
"i+	c #A9912D",
"j+	c #ECC941",
"k+	c #6C5B19",
"l+	c #2B2406",
"m+	c #5E5015",
"n+	c #62531B",
"o+	c #4A3E10",
"p+	c #867221",
"q+	c #554812",
"r+	c #B8B8B8",
"s+	c #9C9C9C",
"t+	c #0D0D0D",
"u+	c #4B400F",
"v+	c #DABA3C",
"w+	c #B59A30",
"x+	c #131002",
"y+	c #CDCDCD",
"z+	c #E1E1E1",
"A+	c #676767",
"B+	c #090909",
"C+	c #1A1A1A",
"D+	c #816D20",
"E+	c #D1B239",
"F+	c #A1A1A1",
"G+	c #D9D9D9",
"H+	c #D5D5D5",
"I+	c #A6A6A6",
"J+	c #0A0A0A",
"K+	c #4F4F4F",
"L+	c #CEB038",
"M+	c #B99E32",
"N+	c #5A5A5A",
"O+	c #BDBDBD",
"P+	c #C2C2C2",
"Q+	c #D1D1D1",
"R+	c #313131",
"S+	c #6A6A6A",
"T+	c #352C08",
"U+	c #645417",
"V+	c #806E20",
"W+	c #79671E",
"X+	c #584A13",
"Y+	c #1E1903",
"Z+	c #B5B5B5",
"`+	c #D5D3D3",
" @	c #B2B2B2",
".@	c #A2A2A2",
"+@	c #131313",
"@@	c #444444",
"#@	c #1B1603",
"$@	c #1F1A03",
"%@	c #383838",
"&@	c #CECECE",
"*@	c #ECECEC",
"=@	c #D6D6D6",
"-@	c #707070",
";@	c #050505",
">@	c #B49A30",
",@	c #D7B83B",
"'@	c #A28A2A",
")@	c #695A19",
"!@	c #B39930",
"~@	c #C6C6C6",
"{@	c #A3A3A3",
"]@	c #1D1D1D",
"^@	c #76641D",
"/@	c #EAC741",
"(@	c #D2B43A",
"_@	c #3F360B",
":@	c #DEDEDE",
"<@	c #DCDCDC",
"[@	c #E0E0E0",
"}@	c #606060",
"|@	c #CDAF38",
"1@	c #9F882A",
"2@	c #6F6F6F",
"3@	c #AEADAC",
"4@	c #BDBCBC",
"5@	c #A7A7A7",
"6@	c #1F1F1F",
"7@	c #937E25",
"8@	c #E1C03E",
"9@	c #594B13",
"0@	c #121212",
"a@	c #E5E4E3",
"b@	c #EAEAEA",
"c@	c #3E3E3E",
"d@	c #4D4210",
"e@	c #DCBC3D",
"f@	c #EEEEEE",
"g@	c #AFAEAE",
"h@	c #9B9B9B",
"i@	c #232323",
"j@	c #6D6D6D",
"k@	c #AF962F",
"l@	c #636363",
"m@	c #DBDBDB",
"n@	c #333333",
"o@	c #E8C540",
"p@	c #CCCCCC",
"q@	c #C1C1C1",
"r@	c #D2D2D2",
"s@	c #978127",
"t@	c #818181",
"u@	c #434343",
"v@	c #DEBE3D",
"w@	c #4F4210",
"x@	c #8B8B8B",
"y@	c #C0C0C0",
"z@	c #D3D1D0",
"A@	c #070707",
"B@	c #473C0E",
"C@	c #B29930",
"D@	c #9D9D9D",
"E@	c #505050",
"F@	c #0F0B01",
"G@	c #A8902D",
"H@	c #6F5F1B",
"I@	c #8A8A8A",
"J@	c #BEBCBB",
"K@	c #C8C8C8",
"L@	c #3C3C3C",
"M@	c #464646",
"N@	c #635417",
"O@	c #CAAC37",
"P@	c #2F2706",
"Q@	c #B4B4B4",
"R@	c #E4E4E4",
"S@	c #959595",
"T@	c #020202",
"U@	c #201A03",
"V@	c #C0A434",
"W@	c #808080",
"X@	c #999999",
"Y@	c #666666",
"Z@	c #826F21",
"`@	c #DBBB3C",
" #	c #0E0E0E",
".#	c #C5C5C5",
"+#	c #ACACAC",
"@#	c #979797",
"##	c #696969",
"$#	c #161616",
"%#	c #40360C",
"&#	c #D5B63A",
"*#	c #AC932D",
"=#	c #130F02",
"-#	c #6B6B6B",
";#	c #BEBEBE",
">#	c #E7E7E7",
",#	c #D7D7D7",
"'#	c #222222",
")#	c #877422",
"!#	c #AEAEAE",
"~#	c #212121",
"{#	c #1D1703",
"]#	c #867222",
"^#	c #EAC841",
"/#	c #BA9E32",
"(#	c #655617",
"_#	c #797979",
":#	c #4D4D4D",
"<#	c #1A1503",
"[#	c #77661D",
"}#	c #B59B30",
"|#	c #DFBE3D",
"1#	c #A0A0A0",
"2#	c #AFAFAF",
"3#	c #242424",
"4#	c #5C5C5C",
"5#	c #545454",
"6#	c #393009",
"7#	c #E8C640",
"8#	c #EBC941",
"9#	c #D6B73B",
"0#	c #BCA033",
"a#	c #9A8328",
"b#	c #665618",
"c#	c #404040",
"d#	c #241E04",
"e#	c #534712",
"f#	c #6A5B19",
"g#	c #77651D",
"h#	c #463C0E",
"i#	c #120E02",
"j#	c #494949",
"k#	c #2A2A2A",
"                                                                                                                                ",
"                                                  . + @ # $ % @ & * = - ; * >                                                   ",
"                                          , ' ) ! ~ { { { { { { { { { { { { ] ^ / (                                             ",
"                                      _ + : { { { { { { { { { { { { { { { { { { { { < [ }                                       ",
"                                  | 1 { { { { { { { { { { { { { { { { { { { { { { { { { { 2 3                                   ",
"                              4 5 { { { { { { { { { { { { { { { { { { { { { { { { { { { { { { 6 7                               ",
"                          8 9 { { { { { { { { { { { { { { { { { { { { { { { { { { { { { { { { { ] -                             ",
"                        0 a { { { { { { { { { { { { { { { { { { { { { { { { { { { { { { { { { { { { 6 b                         ",
"                      c ~ { { { { { { { { { { { { { { { { { { { { { { { { { { { { { { { { { { { { { { d e                       ",
"                    f { { { { { { g h { { { { { { { { { { { { { { { { { { { { { { { { { i j k { { { { { ] |                     ",
"                  9 { { { { { l m n o p { { { { { { { { { { { { { { { { { { { { { { { { q r s t u { { { { { *                   ",
"                @ { { { { { v w x y y z A { { { { { { { { { { { { { { { { { { { { { { B C y y D E A { { { { ~ 4                 ",
"              F { { { { { G H I y y y J h { { { { { { { { { { { { { { { { { { { { { K L y y y y x M N { { { { ] e               ",
"            O { { { { { P Q y y y y y y R S { { { { { { { { { { { { { { { { { { { { T U y y y y y I V W { { { { X Y             ",
"          Z ~ { { { { `  .y y y y y y y I ..{ { { { { { { { { { { { { { { { { { { +.@.y y y y y y y y V #.{ { { { !             ",
"          $.{ { { { %.&.y y y y y y y y y *.=.{ { { { { { { { { { { { { { { { { { -.I y y y y y y y y ;.>.,.{ { { { '.          ",
"        ( { { { { ).w y y y y y y y y y y y !.~.{ { { { { { { { { { { { { { { { {.].y y y y y y y y y y ^./.(.{ { { { _.        ",
"      :.{ { { { <.[.;.y y y y y y y y y y y U }.{ { { { { { { { { { { { { { { |.1.y y y y y y y y y y y y *.G { { { { @         ",
"      F { { { { 2.o y y y y y y y y y y y y y 3.4.{ { { { { { { { { { { { { { 5.6.y y y y y y y y y y y y y z ).{ { { { _.      ",
"    :.{ { { { 7.8.y y y y y y y y y y y y y y ^.9.(.{ { { { { { { { { { { { 0.a.y y y y y y y y y y y y y y b.c.d.{ { { ^       ",
"    e.{ { { { f.x y y y y y y y y y y y y y y y g.h.{ { { { { { { { { { { u i.j.y y y y y y y y y y y y y y y H k.{ { { { l.    ",
"    ~ { { { ,.m.y y y y y y y y y y y y y y y y y n.o.{ { { { { { { { { { p.q.y y y y y y y y y y y y y y y y I c.{ { { { '     ",
"  . { { { { {.U y y y y y y y y y y y y y y y y y r.s.{ { { { { { { { { t.u.y y y y y y y y y y y y y y y y y y v.w.{ { { {     ",
"  / { { { x.y.y y y y y y y y y y y y y y y y y y y z.A.{ { { { { { { { B.C.y y y y y y y y y y y y y y y y y y D.E.{ { { { F.  ",
"  G.{ { { H.s y y y y y y y y y y y y y y y y y y y x I.u { { { { { { J.K.y y y y y y y y y y y y y y y y y y y y L.x.{ { { O   ",
"M.{ { { { N.U y y y y y y y y y y y y y y y y y y y r.y.x.{ { { { { { O.P.x y y y y y y y y y y y y y y y y y y y Q.R.{ { { 5   ",
"M.{ { { { S.y y y y y y y y y y y y y y y y y y y o T.(.{ U.V.W.X.Y.x.{ Z.`.x y y y y y y y y y y y y y y y y y y  +.+{ { { {   ",
"0 { { { u ++y y y y y y y y y y y y y y y y y y J @+#+$+%+&+C j.*+=+-+;+{ k.>+y y y y y y y y y y y y y y y y y y y ,+{ { { {   ",
"'+{ { { )+!.y y y y y y y y y y y y y y y y y y Q.J.{ B.q.y y y y y b.!+~+{ {+]+y y y y y y y y y y y y y y y y y y ^+{ { { { /+",
"{ { { { H.H y y y y y y y y y y y y y y y y y r (+{ S _+y y y y y y y I ++:+x.w y y y y y y y y y y y y y y y y y y <+[+{ { { { ",
"{ { { { k }+y y y y y y y y y y y y y y y y y |+1+{ 2+D.y y y y y y y y q.3+{ 4+^.y y y y y y y y y y y y y y y y y 5+(.{ { { { ",
"{ { { { k 6+7+7+7+7+7+7+7+7+7+7+7+7+7+7+7+7+7+@.8+{ -+y y y y y y y y y U 9+{ 0+a+7+7+7+7+7+7+7+7+7+7+7+7+7+7+7+7+7+b+c+{ { { { ",
"{ { { { d+e+f+f+f+f+f+f+f+f+f+f+f+f+f+f+f+f+f+g+h+{ i+y y y y y y y y y j+k+{ l+m+f+f+f+f+f+f+f+f+f+f+f+f+f+f+f+f+n+o+u { { { { ",
"{ { { { { { { { { { { { { { { { { { { { { { { { { { p+I y y y y y y y y g.q+{ { { { { { { { { { { { { { { { { { ] r+s+t+{ { { { ",
"{ { { { { { { { { { { { { { { { { { { { { { { { { { u+v+y y y y y y y y w+x+{ { { { { { { { { { { { { { { { { { e y+z+A+B+{ { { ",
"C+{ { { { { { { { { { { { { { { { { { { { { { { { { { D+o y y y y y y E+2.{ { { { { { { { { { { { { { { { { { ~ F+G+H+I+J+{ { d ",
"K+{ { { { { { { { { { { { { { { { { { { { { { { { { { t.s.L+U y y 7+M+{.{ { { { { { { { { { { { { { { { { { { N+O+P+Q+R+{ { {   ",
"S+{ { { { { { { { { { { { { { { { { { { { { { { { { { { u T+U+V+W+X+Y+{ { { { { { { { { { { { { { { { { { { { Z+`+ @.@+@{ { {   ",
"@@{ { { { { { { { { { { { { { { { { { { { { { { { { { #@$@{ { { { { { 0.7.{ { { { { { { { { { { { { { { { { %@&@*@=@-@{ { { a   ",
"  ;@{ { { { { { { { { { { { { { { { { { { { { { { { :+>@,@'@c.)@B.4+!@q.}.{ { { { { { { { { { { { { { { { { M.~@{@Z+]@{ { { '.  ",
"  $ { { { { { { { { { { { { { { { { { { { { { { { { ^@/@y I r /@U ^.y y (@_@{ { { { { { { { { { { { { { { { :@<@[@= { { { { _   ",
"  }@{ { { { { { { { { { { { { { { { { { { { { { { Z.|@y y y y y y y y y b.1@{ { { { { { { { { { { { { { { 2@3@4@5@6@{ { { {     ",
"    { { { { { { { { { { { { { { { { { { { { { { { 7@D.y y y y y y y y y y 8@9@{ { { { { { { { { { { { { 0@Z+a@b@[ { { { { c@    ",
"    @@{ { { { { { { { { { { { { { { { { { { { { d@e@y y y y y y y y y y y y M+7.{ { { { { { { { { { { { .@f@g@h@i@{ { { { A+    ",
"    j@{ { { { { { { { { { { { { { { { { { { { d+k@y y y y y y y y y y y y y U W+{ { { { { { { { { { { : Q+l@m@c@{ { { { ;@      ",
"      n@{ { { { { { { { { { { { { { { { { { { t o@y y y y y y y y y y y y y y L+4.{ { { { { { { { { { , p@q@r@) { { { { e       ",
"      A+{ { { { { { { { { { { { { { { { { { $@z y y y y y y y y y y y y y y y b.s@{ { { { { { { { { 5 m@z+O+t@~ { { { C+        ",
"        u@{ { { { { { { { { { { { { { { { u h y y y y y y y y y y y y y y y y y v@w@{ { { { { { { { x@y@z@' { { { { { 7         ",
"          A@{ { { { { { { { { { { { { { { B@v+y y y y y y y y y y y y y y y y y y C@:+{ { { { { { a D@:@~@< { { { { n@          ",
"          E@~ { { { { { { { { { { { { { F@G@y y y y y y y y y y y y y y y y y y y /@H@{ { { { { { I@y@J@K@L@{ { { G.            ",
"            M@{ { { { { { { { { { { { { N@7+y y y y y y y y y y y y y y y y y y y y O@P@{ { { { +@Q@b@R@S@{ { { T@N+            ",
"              5 { { { { { { { { { { { U@V@y y y y y y y y y y y y y y y y y y y y y b.4+(.{ { { W@K@X@&@( { { { Y@              ",
"                5 { { { { { { { { { u Z@r y y y y y y y y y y y y y y y y y y y y y y `@u+{ {  #K@.#+#@#B+{ { |                 ",
"                ##$#{ { { { { { { { %#&#y y y y y y y y y y y y y y y y y y y y y y y y *#=#{ -#;#>#,#0 { { )                   ",
"                  7 '#{ { { { { { { )#J y y y y y y y y y y y y y y y y y y y y y y y y e@u+A@}@q@@#!#< ~ /                     ",
"                      ~#{ { { { { { {#]#z.^#y y y y y y y y y y y y y y y y y y y ;.o /#(#d.. ~@f@_#] X Z                       ",
"                        :#;@{ { { { { { <#[#}#|#U y y y y y y y y y y y y y I o@H L.G c+{ { 9 -#1#2#3#4#                        ",
"                          5#$#{ { { { { { { $+6#s...z `@*.7#U 8#U /@C.|+9#0#a#b#).{ { { { { { { { R+j@                          ",
"                              c#G.{ { { { { { { { { { d#e#f#g#T s.0+f.h#i#{ { { { { { { { { { /+(                               ",
"                                l@/ ] { { { { { { { { { { { { { { { { { { { { { { { { { { ^ j#                                  ",
"                                    b ' ~#{ { { { { { { { { { { { { { { { { { { { { { R+4                                       ",
"                                          0 - 6@~ { { { { { { { { { { { { { { ;@k#c@}                                           ",
"                                                l@* < { { { { { { { { { { /+4 -@                                                ",
"                                                                                                                                "};
