/* XPM */
static char * bitcoin16_xpm[] = {
"16 16 100 2",
"  	c None",
". 	c #3D3D3D",
"+ 	c #0F0F0F",
"@ 	c #0F0A07",
"# 	c #0E0E0E",
"$ 	c #3B3B3B",
"% 	c #333333",
"& 	c #020202",
"* 	c #000000",
"= 	c #010101",
"- 	c #353535",
"; 	c #1C1C1C",
"> 	c #4E410F",
", 	c #CBAD37",
"' 	c #2C2406",
") 	c #2C2405",
"! 	c #C9AB36",
"~ 	c #504310",
"{ 	c #1F1F1F",
"] 	c #323232",
"^ 	c #4B3F0F",
"/ 	c #EECB42",
"( 	c #F1CD43",
"_ 	c #947E26",
": 	c #010100",
"< 	c #907A24",
"[ 	c #EDCA42",
"} 	c #221B03",
"| 	c #E1C03F",
"1 	c #E9C740",
"2 	c #4B3F0E",
"3 	c #43380C",
"4 	c #EBC841",
"5 	c #DFBE3E",
"6 	c #282105",
"7 	c #77641D",
"8 	c #B3982F",
"9 	c #060400",
"0 	c #B0952F",
"a 	c #7A671D",
"b 	c #161616",
"c 	c #BFA233",
"d 	c #C8AA37",
"e 	c #5B4D14",
"f 	c #594B13",
"g 	c #C6A936",
"h 	c #BFA334",
"i 	c #0A0908",
"j 	c #DBBA3C",
"k 	c #EECA42",
"l 	c #ECC941",
"m 	c #937D25",
"n 	c #F0CC43",
"o 	c #917B24",
"p 	c #D9B93C",
"q 	c #181001",
"r 	c #806C1F",
"s 	c #F0CD43",
"t 	c #826E20",
"u 	c #A6A6A6",
"v 	c #272422",
"w 	c #1D1D1D",
"x 	c #040300",
"y 	c #483C0E",
"z 	c #473C0E",
"A 	c #B4B4B4",
"B 	c #121212",
"C 	c #363636",
"D 	c #AB912D",
"E 	c #AE942E",
"F 	c #8B8A8A",
"G 	c #626262",
"H 	c #343434",
"I 	c #362C08",
"J 	c #E8C540",
"K 	c #E9C741",
"L 	c #2C2506",
"M 	c #101010",
"N 	c #C1C1C1",
"O 	c #252525",
"P 	c #303030",
"Q 	c #C7A836",
"R 	c #CAAC36",
"S 	c #8D8D8D",
"T 	c #6D6D6D",
"U 	c #2E2E2E",
"V 	c #584A12",
"W 	c #66592F",
"X 	c #D1D1D1",
"Y 	c #313131",
"Z 	c #120D01",
"` 	c #695918",
" .	c #C0A433",
"..	c #EAC741",
"+.	c #C1A534",
"@.	c #27241F",
"#.	c #585858",
"$.	c #383838",
"%.	c #030303",
"&.	c #373737",
"          . + @ @ # $           ",
"      % & * * * * * * = -       ",
"    ; > , ' * * * * ) ! ~ {     ",
"  ] ^ / ( _ * * * : < ( [ ~ %   ",
"  } | ( ( 1 2 * * 3 4 ( ( 5 6   ",
"% 7 ( ( ( ( 8 9 : 0 ( ( ( ( a % ",
"b c ( ( ( ( d e f g ( ( ( ( h i ",
"9 j k k k l m n ( o k k k k p q ",
"= * * * * * r n s t * * * * u v ",
"w * * * * * x y z x * * * # A B ",
"C * * * * * D n n E * * * F G H ",
"  * * * * I J ( ( K L * M N O   ",
"  P * * * Q ( ( ( ( R * S T U   ",
"    B * V k ( ( ( ( k W X P     ",
"      Y Z `  .K ..+.` @.#.      ",
"          $.%.9 9 & &.          "};
